<?xml version="1.0" encoding="UTF-8"?>
<svg id="_レイヤー_2" data-name="レイヤー 2" xmlns="http://www.w3.org/2000/svg" viewBox="0 0 159.35 237.17">
  <defs>
    <style>
      .cls-1 {
        fill: #3200ff;
      }

      @keyframes LINE {
        0% {
          stroke-dashoffset: 3000;
          fill-opacity: 0;
        }

        100% {
          stroke-dashoffset: 0;
          fill-opacity: 0;
        }
      }



      .cls-2 {
        fill: none;
        stroke: #000;
        stroke-miterlimit: 10;
        stroke-width: .5px;

        stroke-dasharray: 3000;
        stroke-dashoffset: 3000;
        animation: LINE 4s ease-in 2s infinite;
      }

      .cls-3 {
        fill: none;
        stroke: #000000;
        stroke-miterlimit: 10;
        stroke-width: .5px;

        stroke-dasharray: 3000;
        stroke-dashoffset: 3000;
        animation: LINE 4s ease-in 2s infinite;
      }
    </style>
  </defs>
  <g id="_レイヤー_1-2" data-name="レイヤー 1">
    <path class="cls-3"
      d="M74.58,123.16c13.06-8.93,28.96-10.51,25.33-2.29s-31.14,10.41-42.8,10.6-12.52-4.3-.29-8.12,11.58-4.88,10.71-5.83-3-1.65-.31-7.16,1.89-8.26-1.1-18.17-4.25-9.99-5.82-9.83,2.67,10.3,3.78,13.45-6.21,14.71,2.28,13.69,9.36-9.12,8.49-12.98-.79-8.34-.24-15.26-2.07-7.79-3.94-11.78-13.97-7.32-11.84-3.86,10.25,2,13.97-.53,2.26-7.85-.67-16.5,.4-15.3,2.93-21.69-.4-12.38-2.93-18.36S59.67,1.43,53.51,2.08s-10.56,2.79-13.99,7.12,2.98,10.75,7.06,11.46,6.8-2.01,8.16-3.37,3.3-3.3,8.94-3.82,8.55,4.6,7.45,7-.52,7.71-.45,8.87-2.98,3.24-2.27,4.99-.13,5.38-.32,5.96-2.4,4.79-3.5,6.02-2.85,4.66-2.85,4.66c0,0-2.77,3.35-5.45,2.93s-10.42-3.86-5.63-4.37,4.03,1.85,2.35,5.12-.76,3.36-.92,8.74-3.11,1.76-4.82-.08,14.49-2.84,9.54,5.32,6.15,12.71-4.95,18.46-17.39-12.04-21.81-23.68-14.98,3.08-11.24-21.67S36.6,5.29,47.84,1.41s15.25,2.68,3.21,9.63-1.74,9.9-6.29,16.06-4.28,9.5-.8,18.6,1.23,15.89,.94,18.49-12.42,24.61-3.72,34.72,4.63,16.6-3.97,17.45-16.36-15.69-18.05-20.92,3.21-12.99,8.94-23.62-19.06-21.59-24.12,4.39,13.36,57.33,16.28,60.05,8.26-2.05,20.02-3.23,28.08-10.16,28.95-10.73,3.49,.46,5.49-1.69,2.05-1.49,4.67-3.18-1.59-6.31-2.31-4.06,3.95,3.75,5.13,2.67,.1-5.54-.98-5.13,.41,3.44,1.03,4.16,2.41,.41,3.13-.15,.31-4.93-.82-4.31,.15,2,2,3.85,2.1-3.18-.46-5.65-1.69-2.21,2.62,.77,4.31,1.33,5.34,.72-2.05-1.44-8.78-5.54-15.76,7.75-18.94,10.37-31.93,3.23-37.52,3.08-9.03,3.64-4.77,3.18,3.28-3.3,2.81-5.02-3.05-5.86-.63-27.37-8.76-31.2-19.55-25.65S1.77,93.79,2.43,95.39s1.16,6.79,1.16,6.79c0,0-.06,7.24,.76,9.68s6.65,12.65,6.31,14.67-.59,11.17,.67,14.05,3.82,5.53,5.67,5.33,4.91-2.33,4.21-3.25-4.1,0-6.68,1.6-3.51,5.24-3.51,5.24c-1.16,8.57-10.28,16.52-5.51,29.8s15.6,11.26,15.6,11.26c0,0,3.88-.31,4.05,1.34s18.69,13.19,21.41,13.64,10.45,3.18,8.99-.05-6.35,.27-10.65,3.16-10.93,30.69-3.2,19.84,3.05-17.03,2.03-19.3-12.57-9.37-12.57-9.37c0,0-23.19-13.27-28.03-6.17s16.33,14.66,16.33,14.66c0,0,6.31,3,11.12,3.28s2.94-2.52,2.94-2.52c0,0-9.49-8.19-15.09-4.48s-1.61,9.18-1.61,9.18c0,0,6.9,5.78,10.3,13.57s-3.94,9.58-3.94,9.58H.75" />
    <path class="cls-3"
      d="M76.18,123.97s8.72,1.35,11.7-4.98,11.74-58.03,11.74-58.03c0,0,.38-3.14,5.51-2.66s53.42,10.08,53.42,10.08c0,0,1.24-.57,0,6.46s-9.32,44.15-9.32,44.15c0,0,0,3.75-8.93,4.42s-32.51,1.66-35.26-4.83,30.99-4.16,42.01,0,21.96,10.44-4.37,18.99-27.85,6.56-23.57,2.66,8.84-.86,8.84-.29,2.76,7.79-2.38,24.05-11.6,42.39-27.85,6.94,4.94-28.9,4.28-27.18,3.27,4.06-20.93,3.17-40.25-3.27-29.26-10.54,8.61-1.04,7.72,.89,8.32,7.87,6.39,16.93-4.7,16.35-5.29,5.91,10.54-5.42,16.45-3.25,73.17,27.87,52.09,48.35-40.6,32.83-45.72,28.53-1.16-27.93,14.38-34.04,15.36,1.41,9.84,.87-7.32,.81-12.11-2.17-4.07-2.71-7.32-3.07-24.95-8.32-36.15-20.52-21.42-18.62,1.36-8.77,35.88,39.86,25.49,49.71-9.68,9.52-14.47,14.58-5.24,6.58-5.24,6.58h83.44" />
    <path class="cls-1"
      d="M126.45,81.52c-.16-.15,.04-.69,.34-1.02,.29-.32,.79-.59,.96-.44,.17,.14,0,.67-.26,1-.31,.38-.87,.62-1.04,.47Z" />
    <path class="cls-1"
      d="M126.54,81.95s-1.01-.61-1.74-.15-1.29,1.66-.56,3.22,1.56,1.33,1.65,1.28,.36-.22,.65-.21,.6,.04,.77,.18,.67,.09,1.01-.29,.65-.94,.72-1.12,.07-.25,.07-.25c0,0-.58-.09-.81-.75s.15-1.34,.41-1.49l.25-.15s-.23-.3-.54-.44-.61-.22-.91-.17-.88,.34-.92,.35h-.04Z" />
  </g>
</svg>