<svg xmlns="http://www.w3.org/2000/svg" xmlns:xlink="http://www.w3.org/1999/xlink" width="500" zoomAndPan="magnify" viewBox="0 0 375 374.999991" height="500" preserveAspectRatio="xMidYMid meet" version="1.0"><defs><clipPath id="1b4f406c98"><path d="M 112.5 112.5 L 262.5 112.5 L 262.5 262.5 L 112.5 262.5 Z M 112.5 112.5 " clip-rule="nonzero"/></clipPath><clipPath id="ad59466ca0"><path d="M 113 112.5 L 261 112.5 L 261 247 L 113 247 Z M 113 112.5 " clip-rule="nonzero"/></clipPath></defs><g clip-path="url(#1b4f406c98)"><path fill="#37aedd" d="M 262.507812 187.503906 C 262.507812 228.925781 228.925781 262.507812 187.503906 262.507812 C 146.078125 262.507812 112.5 228.925781 112.5 187.503906 C 112.5 146.082031 146.078125 112.5 187.503906 112.5 C 228.925781 112.5 262.507812 146.082031 262.507812 187.503906 " fill-opacity="1" fill-rule="nonzero"/></g><g clip-path="url(#ad59466ca0)"><path fill="#a4e288" d="M 220.34375 129.847656 C 218.6875 133.917969 221.113281 136.882812 225.257812 138.359375 C 225.785156 138.546875 226.117188 138.902344 226.574219 138.796875 C 228.832031 138.277344 229.960938 137.269531 230.394531 135.796875 C 230.597656 135.105469 233.566406 136.269531 233.417969 137.964844 C 233.117188 141.335938 230.121094 143.042969 225.96875 142.351562 C 222.910156 141.84375 218.613281 139.714844 217.675781 143.207031 C 216.457031 147.738281 223.574219 152.070312 221.75 153.574219 C 221.292969 153.949219 219.417969 153.738281 218.941406 154.523438 C 217.304688 157.242188 216.914062 161.984375 220.511719 162.601562 C 232.640625 164.667969 227.703125 157.632812 231.261719 159.625 C 232.363281 160.242188 233.273438 163.320312 233.273438 163.320312 C 227.621094 161.972656 231.910156 167.867188 226.050781 164.058594 C 223.550781 163.863281 221.734375 164.980469 220.585938 166.550781 C 220.046875 168.316406 219.234375 171.203125 219.03125 171.492188 C 216.933594 174.507812 216.03125 171.261719 213.808594 174.136719 C 210.742188 178.109375 210.277344 184.910156 211.816406 189.648438 C 213.113281 193.648438 217.226562 199.003906 221.511719 199.972656 C 223.265625 200.371094 224.972656 199.25 226.503906 199.515625 C 232.746094 200.59375 230.335938 204.152344 231.800781 208.554688 C 232.347656 210.195312 234.164062 213.128906 232.722656 215.191406 C 231.539062 216.617188 230.125 217.488281 228.480469 217.800781 C 228.328125 218 227.773438 217.914062 227.648438 218.207031 C 226.671875 220.417969 227.933594 223.175781 228.472656 225.507812 C 228.121094 226.105469 227.792969 226.71875 227.359375 227.257812 C 226.113281 228.816406 223.867188 229.433594 222.792969 231.007812 C 221.976562 232.203125 221.75 232.980469 222.492188 234.257812 C 222.871094 234.910156 224.09375 234.613281 224.457031 234.113281 C 226.816406 230.878906 231.210938 231.4375 233.46875 228.148438 C 235.050781 225.84375 235.648438 223.125 237.085938 220.8125 C 238.824219 219.171875 242.878906 218.394531 243.425781 215.53125 C 244.011719 212.433594 247.105469 211.234375 246.960938 206.140625 C 248.574219 201.484375 252.746094 198.929688 254.40625 194.523438 C 255.507812 191.59375 256.203125 188.507812 256.082031 185.355469 C 256.019531 183.707031 255.570312 182.09375 255.085938 180.492188 C 255.703125 178.140625 258.460938 174.445312 260.679688 171.085938 C 255.714844 148.855469 240.894531 130.359375 221.03125 120.414062 C 220.058594 123.535156 221.101562 127.984375 220.34375 129.847656 Z M 127.03125 189.289062 C 132.78125 190.898438 132.273438 196.632812 133.933594 202.863281 C 135.773438 209.765625 140.835938 209.304688 149.347656 216.722656 C 156.941406 223.109375 154.65625 228.117188 158.097656 235.386719 C 160.210938 239.855469 167.414062 241.550781 170.5 245.238281 C 171.324219 246.222656 173.960938 247.238281 172.667969 244.523438 C 171.339844 241.746094 171.78125 239.1875 170.632812 237.949219 C 168.960938 236.039062 168.285156 235.070312 169.027344 232.855469 C 169.730469 229.972656 170.894531 227.65625 174.296875 226.207031 C 178.457031 224.433594 180.640625 221.113281 182.089844 216.972656 C 182.710938 212.527344 186.460938 210.734375 186.476562 210.578125 C 186.734375 207.9375 183.976562 206.519531 181.855469 205.820312 C 178.242188 204.636719 175.386719 205.070312 172.589844 202.109375 C 170.9375 200.359375 170.257812 197.773438 168.40625 196.234375 C 165.976562 194.21875 163.238281 195.355469 160.449219 194.871094 C 158.355469 191.21875 151.597656 188.398438 144.359375 192.613281 C 141.296875 193.429688 139.328125 192.222656 137.0625 188.828125 C 135.660156 184.800781 136.070312 182.574219 134.394531 179.96875 C 132.207031 177.785156 129.695312 177.742188 127.371094 177.613281 C 123.234375 175.136719 125.359375 173.367188 127.308594 171.5 C 129.445312 169.847656 133.128906 168.582031 135.269531 168.703125 C 136.828125 168.789062 137.347656 169.15625 138.949219 168.605469 C 143.507812 167.03125 143.109375 161.628906 148.164062 158.589844 C 148.523438 158.378906 152.929688 158.191406 155.246094 152.625 C 155.558594 151.871094 155.984375 148.164062 156.257812 147.925781 C 157.429688 146.921875 160.066406 148.472656 161.003906 149.082031 C 161.574219 149.449219 162.574219 149.050781 162.9375 148.5625 C 166.871094 143.300781 163.214844 140.277344 158.816406 136.789062 C 145.601562 126.308594 147.449219 141.640625 140.882812 139.394531 C 139.757812 139.007812 138.953125 138.007812 138.289062 136.769531 C 137.960938 135.21875 139.101562 130.21875 148.496094 128.046875 C 154.546875 126.644531 152.855469 129.070312 157.632812 129.484375 C 158.835938 129.589844 160.273438 129.445312 161.320312 128.753906 C 163.722656 127.164062 160.894531 122.738281 157.84375 118.605469 C 135.546875 128.214844 118.847656 148.320312 113.96875 172.703125 C 117.828125 194.898438 122.199219 187.503906 127.03125 189.289062 Z M 163.390625 116.484375 C 170.960938 113.914062 179.0625 112.5 187.503906 112.5 C 189.773438 112.5 192.015625 112.617188 194.238281 112.816406 C 194.816406 115.832031 195.09375 119.214844 194.761719 120.792969 C 193.890625 124.945312 189.152344 125.703125 186.179688 127.792969 C 182.898438 130.105469 184.097656 131.566406 181.886719 134.21875 C 181.761719 134.371094 181.75 134.585938 181.589844 134.730469 C 180.371094 135.804688 179.519531 135.910156 177.976562 135.714844 C 174.644531 135.292969 171.761719 131.597656 170.578125 128.757812 C 169.742188 126.75 170.078125 124.832031 169.628906 122.792969 C 168.765625 118.882812 166.746094 117.902344 163.390625 116.484375 " fill-opacity="1" fill-rule="nonzero"/></g><path fill="#f9d4e6" d="M 144.402344 166.175781 C 140.0625 165.679688 136.210938 168.191406 135.800781 171.785156 C 135.386719 175.378906 138.574219 178.691406 142.914062 179.191406 C 147.257812 179.6875 151.109375 177.175781 151.519531 173.582031 C 151.933594 169.988281 148.746094 166.675781 144.402344 166.175781 Z M 237.527344 183.085938 C 237.117188 186.679688 233.265625 189.191406 228.921875 188.691406 C 224.582031 188.195312 221.394531 184.882812 221.804688 181.289062 C 222.214844 177.695312 226.070312 175.183594 230.410156 175.679688 C 234.75 176.175781 237.9375 179.492188 237.527344 183.085938 " fill-opacity="1" fill-rule="nonzero"/><path fill="#2d1e1a" d="M 203.449219 182.074219 C 203.796875 181.746094 203.8125 181.199219 203.484375 180.855469 C 203.15625 180.507812 202.613281 180.492188 202.265625 180.816406 C 198.589844 184.28125 192.800781 186.035156 186.773438 185.507812 C 180.238281 184.9375 174.425781 181.832031 170.820312 176.996094 C 170.535156 176.613281 169.996094 176.535156 169.613281 176.820312 C 169.230469 177.105469 169.152344 177.644531 169.4375 178.027344 C 173.335938 183.257812 179.597656 186.613281 186.625 187.226562 C 187.375 187.292969 188.125 187.324219 188.871094 187.324219 C 194.558594 187.324219 199.886719 185.429688 203.449219 182.074219 Z M 159.742188 161.488281 C 157.097656 161.488281 154.949219 163.636719 154.949219 166.28125 C 154.949219 168.921875 157.097656 171.074219 159.742188 171.074219 C 162.386719 171.074219 164.535156 168.921875 164.535156 166.28125 C 164.535156 163.636719 162.386719 161.488281 159.742188 161.488281 Z M 218.375 172.683594 C 218.375 175.328125 216.226562 177.476562 213.582031 177.476562 C 210.9375 177.476562 208.789062 175.328125 208.789062 172.683594 C 208.789062 170.039062 210.9375 167.890625 213.582031 167.890625 C 216.226562 167.890625 218.375 170.039062 218.375 172.683594 " fill-opacity="1" fill-rule="nonzero"/></svg>