<svg xmlns="http://www.w3.org/2000/svg" xmlns:xlink="http://www.w3.org/1999/xlink" width="500" zoomAndPan="magnify" viewBox="0 0 375 374.999991" height="500" preserveAspectRatio="xMidYMid meet" version="1.0"><defs><clipPath id="41159dd550"><path d="M 112.5 112.5 L 262.5 112.5 L 262.5 262.5 L 112.5 262.5 Z M 112.5 112.5 " clip-rule="nonzero"/></clipPath></defs><g clip-path="url(#41159dd550)"><path fill="#0099ff" d="M 112.5 129.167969 L 112.5 245.832031 C 112.5 255.042969 119.957031 262.5 129.167969 262.5 L 245.832031 262.5 C 255.042969 262.5 262.5 255.042969 262.5 245.832031 L 262.5 129.167969 C 262.5 119.957031 255.042969 112.5 245.832031 112.5 L 129.167969 112.5 C 119.957031 112.5 112.5 119.957031 112.5 129.167969 Z M 201.382812 191.257812 L 183.734375 191.257812 L 183.734375 245.832031 L 169.507812 245.832031 L 169.507812 191.257812 L 152.226562 191.257812 L 152.226562 179.167969 L 201.382812 179.167969 Z M 204.148438 242.714844 L 204.148438 228.125 C 204.148438 228.125 212.117188 234.132812 221.683594 234.132812 C 231.25 234.132812 230.875 227.882812 230.875 227.023438 C 230.875 217.949219 203.785156 217.949219 203.785156 197.851562 C 203.785156 170.507812 243.257812 181.300781 243.257812 181.300781 L 242.765625 194.292969 C 242.765625 194.292969 236.148438 189.875 228.667969 189.875 C 221.191406 189.875 218.492188 193.433594 218.492188 197.234375 C 218.492188 207.042969 245.832031 206.058594 245.832031 225.800781 C 245.832031 256.199219 204.148438 242.714844 204.148438 242.714844 Z M 204.148438 242.714844 " fill-opacity="1" fill-rule="nonzero"/></g></svg>