<svg xmlns="http://www.w3.org/2000/svg" xmlns:xlink="http://www.w3.org/1999/xlink" width="500" zoomAndPan="magnify" viewBox="0 0 375 374.999991" height="500" preserveAspectRatio="xMidYMid meet" version="1.0"><defs><clipPath id="e1f1e3d3cd"><path d="M 112.5 146 L 221 146 L 221 228 L 112.5 228 Z M 112.5 146 " clip-rule="nonzero"/></clipPath><clipPath id="93ec3299cf"><path d="M 172 146 L 262.5 146 L 262.5 228 L 172 228 Z M 172 146 " clip-rule="nonzero"/></clipPath></defs><g clip-path="url(#e1f1e3d3cd)"><path fill="#0099ff" d="M 145.445312 211.085938 L 210.582031 146.09375 L 220.496094 155.984375 L 150.402344 225.921875 C 149.085938 227.234375 147.304688 227.972656 145.445312 227.972656 C 143.585938 227.972656 141.800781 227.234375 140.488281 225.921875 L 112.449219 197.945312 L 122.363281 188.054688 Z M 145.445312 211.085938 " fill-opacity="1" fill-rule="evenodd"/></g><g clip-path="url(#93ec3299cf)"><path fill="#0099ff" d="M 187.503906 211.085938 L 252.636719 146.09375 L 262.550781 155.984375 L 192.460938 225.921875 C 189.722656 228.652344 185.285156 228.652344 182.546875 225.921875 L 172.03125 215.433594 L 181.941406 205.539062 Z M 187.503906 211.085938 " fill-opacity="1" fill-rule="evenodd"/></g></svg>