<svg xmlns="http://www.w3.org/2000/svg" xmlns:xlink="http://www.w3.org/1999/xlink" width="500" zoomAndPan="magnify" viewBox="0 0 375 374.999991" height="500" preserveAspectRatio="xMidYMid meet" version="1.0"><path fill="#0099ff" d="M 186.160156 114.507812 C 183.0625 114.503906 179.976562 114.707031 176.90625 115.109375 C 173.835938 115.515625 170.800781 116.121094 167.8125 116.925781 C 164.820312 117.730469 161.894531 118.730469 159.035156 119.921875 C 156.175781 121.117188 153.40625 122.492188 150.730469 124.050781 C 148.054688 125.609375 145.488281 127.339844 143.042969 129.238281 C 140.59375 131.136719 138.28125 133.1875 136.105469 135.390625 C 133.925781 137.597656 131.90625 139.933594 130.039062 142.40625 C 128.171875 144.878906 126.472656 147.464844 124.949219 150.160156 C 123.421875 152.855469 122.082031 155.644531 120.925781 158.515625 C 119.769531 161.390625 118.808594 164.328125 118.039062 167.332031 C 117.269531 170.332031 116.703125 173.371094 116.339844 176.449219 C 115.972656 179.523438 115.8125 182.609375 115.855469 185.707031 C 115.898438 188.808594 116.144531 191.886719 116.597656 194.953125 C 117.046875 198.019531 117.699219 201.039062 118.546875 204.019531 C 119.398438 207 120.441406 209.910156 121.679688 212.75 C 122.914062 215.589844 124.332031 218.339844 125.933594 220.992188 L 116.019531 250.726562 C 115.933594 250.976562 115.882812 251.234375 115.859375 251.5 C 115.835938 251.765625 115.84375 252.027344 115.886719 252.289062 C 115.925781 252.550781 115.996094 252.804688 116.097656 253.050781 C 116.195312 253.296875 116.324219 253.527344 116.480469 253.742188 C 116.636719 253.957031 116.8125 254.152344 117.015625 254.324219 C 117.214844 254.496094 117.433594 254.644531 117.671875 254.765625 C 117.90625 254.886719 118.152344 254.976562 118.410156 255.039062 C 118.667969 255.101562 118.929688 255.132812 119.195312 255.132812 C 119.558594 255.132812 119.914062 255.078125 120.253906 254.960938 L 149.992188 245.050781 C 151.148438 245.746094 152.320312 246.40625 153.515625 247.03125 C 154.710938 247.660156 155.921875 248.25 157.148438 248.808594 C 158.378906 249.363281 159.621094 249.886719 160.878906 250.371094 C 162.136719 250.855469 163.410156 251.304688 164.691406 251.71875 C 165.976562 252.132812 167.269531 252.507812 168.578125 252.84375 C 169.882812 253.183594 171.195312 253.480469 172.519531 253.742188 C 173.84375 254.007812 175.171875 254.230469 176.507812 254.414062 C 177.84375 254.601562 179.183594 254.75 180.527344 254.855469 C 181.871094 254.964844 183.21875 255.035156 184.566406 255.066406 C 185.914062 255.097656 187.261719 255.089844 188.609375 255.042969 C 189.957031 254.996094 191.304688 254.910156 192.644531 254.789062 C 193.988281 254.664062 195.328125 254.5 196.660156 254.300781 C 197.996094 254.097656 199.320312 253.859375 200.640625 253.582031 C 201.960938 253.304688 203.273438 252.988281 204.574219 252.636719 C 205.875 252.285156 207.164062 251.894531 208.445312 251.46875 C 209.722656 251.039062 210.988281 250.578125 212.242188 250.078125 C 213.496094 249.578125 214.730469 249.042969 215.953125 248.46875 C 217.175781 247.898438 218.378906 247.292969 219.566406 246.652344 C 220.753906 246.011719 221.921875 245.339844 223.070312 244.628906 C 224.214844 243.921875 225.34375 243.183594 226.449219 242.410156 C 227.554688 241.636719 228.636719 240.835938 229.695312 240 C 230.753906 239.164062 231.789062 238.300781 232.796875 237.40625 C 233.808594 236.511719 234.789062 235.589844 235.746094 234.636719 C 236.703125 233.6875 237.632812 232.707031 238.53125 231.703125 C 239.429688 230.699219 240.300781 229.671875 241.140625 228.617188 C 241.984375 227.5625 242.792969 226.484375 243.570312 225.382812 C 244.351562 224.28125 245.097656 223.160156 245.8125 222.015625 C 246.523438 220.871094 247.207031 219.707031 247.851562 218.523438 C 248.5 217.339844 249.113281 216.140625 249.691406 214.921875 C 250.269531 213.703125 250.8125 212.46875 251.316406 211.21875 C 251.824219 209.96875 252.296875 208.707031 252.730469 207.429688 C 253.164062 206.152344 253.5625 204.863281 253.921875 203.566406 C 254.28125 202.265625 254.605469 200.957031 254.886719 199.636719 C 255.171875 198.320312 255.421875 196.996094 255.628906 195.664062 C 255.835938 194.332031 256.007812 192.992188 256.136719 191.652344 C 256.269531 190.308594 256.363281 188.964844 256.417969 187.617188 C 256.472656 186.269531 256.484375 184.921875 256.460938 183.570312 C 256.4375 182.222656 256.375 180.878906 256.277344 179.53125 C 256.175781 178.1875 256.035156 176.847656 255.855469 175.511719 C 255.679688 174.171875 255.460938 172.84375 255.207031 171.519531 C 254.953125 170.195312 254.660156 168.878906 254.328125 167.570312 C 254 166.261719 253.632812 164.964844 253.226562 163.679688 C 252.820312 162.394531 252.378906 161.121094 251.902344 159.859375 C 251.421875 158.597656 250.90625 157.351562 250.359375 156.121094 C 249.808594 154.890625 249.222656 153.675781 248.601562 152.476562 C 247.980469 151.28125 247.328125 150.101562 246.640625 148.941406 C 245.953125 147.78125 245.230469 146.640625 244.476562 145.523438 C 243.722656 144.40625 242.9375 143.308594 242.121094 142.234375 C 241.304688 141.164062 240.460938 140.113281 239.582031 139.089844 C 238.703125 138.066406 237.800781 137.066406 236.863281 136.09375 C 235.929688 135.121094 234.96875 134.175781 233.980469 133.257812 C 232.992188 132.34375 231.976562 131.453125 230.9375 130.597656 C 229.898438 129.738281 228.832031 128.910156 227.746094 128.113281 C 226.65625 127.316406 225.546875 126.550781 224.417969 125.816406 C 223.285156 125.082031 222.132812 124.382812 220.960938 123.714844 C 219.789062 123.046875 218.597656 122.414062 217.390625 121.816406 C 216.183594 121.21875 214.957031 120.652344 213.714844 120.125 C 212.476562 119.597656 211.21875 119.105469 209.953125 118.648438 C 208.683594 118.191406 207.402344 117.773438 206.109375 117.390625 C 204.8125 117.007812 203.511719 116.664062 202.199219 116.355469 C 200.882812 116.050781 199.5625 115.78125 198.234375 115.550781 C 196.90625 115.316406 195.570312 115.125 194.234375 114.972656 C 192.894531 114.816406 191.550781 114.699219 190.203125 114.625 C 188.855469 114.546875 187.507812 114.507812 186.160156 114.507812 Z M 186.160156 248.4375 C 180.148438 248.433594 174.253906 247.589844 168.480469 245.910156 C 162.707031 244.226562 157.28125 241.773438 152.207031 238.550781 C 151.660156 238.203125 151.0625 238.03125 150.414062 238.03125 C 150.054688 238.03125 149.699219 238.085938 149.355469 238.203125 L 124.488281 246.492188 L 132.777344 221.625 C 132.9375 221.148438 132.984375 220.660156 132.925781 220.160156 C 132.863281 219.664062 132.699219 219.199219 132.433594 218.773438 C 131.8125 217.789062 131.21875 216.789062 130.652344 215.769531 C 130.085938 214.75 129.546875 213.71875 129.039062 212.671875 C 128.527344 211.625 128.046875 210.5625 127.597656 209.488281 C 127.144531 208.414062 126.722656 207.328125 126.332031 206.234375 C 125.941406 205.136719 125.578125 204.027344 125.25 202.910156 C 124.917969 201.796875 124.617188 200.671875 124.351562 199.535156 C 124.082031 198.402344 123.84375 197.261719 123.636719 196.117188 C 123.429688 194.96875 123.257812 193.820312 123.113281 192.664062 C 122.972656 191.507812 122.859375 190.347656 122.78125 189.1875 C 122.703125 188.023438 122.65625 186.859375 122.640625 185.695312 C 122.625 184.53125 122.640625 183.367188 122.691406 182.203125 C 122.738281 181.039062 122.820312 179.878906 122.933594 178.71875 C 123.042969 177.558594 123.1875 176.402344 123.363281 175.253906 C 123.542969 174.101562 123.75 172.953125 123.988281 171.816406 C 124.226562 170.675781 124.496094 169.542969 124.796875 168.417969 C 125.101562 167.292969 125.433594 166.175781 125.796875 165.070312 C 126.15625 163.960938 126.550781 162.867188 126.972656 161.78125 C 127.398438 160.695312 127.847656 159.621094 128.332031 158.5625 C 128.8125 157.5 129.324219 156.457031 129.863281 155.421875 C 130.402344 154.390625 130.96875 153.375 131.566406 152.371094 C 132.160156 151.371094 132.785156 150.386719 133.433594 149.421875 C 134.082031 148.453125 134.757812 147.503906 135.460938 146.574219 C 136.160156 145.644531 136.886719 144.734375 137.640625 143.847656 C 138.390625 142.957031 139.167969 142.085938 139.964844 141.242188 C 140.765625 140.394531 141.585938 139.570312 142.429688 138.765625 C 143.277344 137.964844 144.140625 137.1875 145.03125 136.429688 C 145.917969 135.675781 146.824219 134.949219 147.753906 134.242188 C 148.679688 133.539062 149.625 132.859375 150.589844 132.207031 C 151.554688 131.554688 152.539062 130.929688 153.539062 130.332031 C 154.535156 129.730469 155.550781 129.160156 156.582031 128.617188 C 157.613281 128.074219 158.65625 127.5625 159.714844 127.078125 C 160.773438 126.589844 161.847656 126.136719 162.929688 125.707031 C 164.015625 125.28125 165.109375 124.886719 166.214844 124.519531 C 167.320312 124.152344 168.4375 123.816406 169.558594 123.511719 C 170.683594 123.207031 171.816406 122.933594 172.953125 122.691406 C 174.09375 122.449219 175.238281 122.238281 176.390625 122.058594 C 177.539062 121.878906 178.695312 121.730469 179.855469 121.613281 C 181.015625 121.496094 182.175781 121.410156 183.339844 121.359375 C 184.503906 121.308594 185.667969 121.285156 186.832031 121.296875 C 187.996094 121.308594 189.160156 121.351562 190.320312 121.429688 C 191.484375 121.503906 192.644531 121.609375 193.800781 121.75 C 194.957031 121.890625 196.109375 122.058594 197.253906 122.261719 C 198.402344 122.464844 199.542969 122.699219 200.675781 122.964844 C 201.8125 123.230469 202.9375 123.527344 204.054688 123.851562 C 205.175781 124.179688 206.28125 124.539062 207.378906 124.925781 C 208.480469 125.3125 209.566406 125.730469 210.640625 126.179688 C 211.714844 126.625 212.777344 127.101562 213.828125 127.609375 C 214.875 128.117188 215.910156 128.648438 216.929688 129.214844 C 217.949219 129.777344 218.953125 130.367188 219.941406 130.984375 C 220.929688 131.601562 221.898438 132.246094 222.851562 132.917969 C 223.800781 133.589844 224.734375 134.289062 225.648438 135.011719 C 226.5625 135.734375 227.453125 136.480469 228.328125 137.253906 C 229.199219 138.023438 230.050781 138.820312 230.878906 139.636719 C 231.707031 140.457031 232.511719 141.296875 233.296875 142.160156 C 234.078125 143.023438 234.835938 143.90625 235.570312 144.8125 C 236.304688 145.714844 237.011719 146.640625 237.695312 147.582031 C 238.378906 148.527344 239.035156 149.488281 239.664062 150.46875 C 240.296875 151.445312 240.898438 152.441406 241.472656 153.457031 C 242.050781 154.46875 242.597656 155.496094 243.117188 156.539062 C 243.636719 157.582031 244.125 158.636719 244.585938 159.707031 C 245.046875 160.777344 245.480469 161.859375 245.878906 162.953125 C 246.28125 164.046875 246.652344 165.148438 246.992188 166.261719 C 247.335938 167.378906 247.644531 168.5 247.921875 169.628906 C 248.203125 170.761719 248.449219 171.898438 248.667969 173.042969 C 248.882812 174.1875 249.070312 175.335938 249.222656 176.492188 C 249.375 177.648438 249.496094 178.804688 249.585938 179.964844 C 249.675781 181.128906 249.734375 182.289062 249.761719 183.453125 C 249.785156 184.621094 249.78125 185.785156 249.742188 186.949219 C 249.703125 188.113281 249.632812 189.273438 249.53125 190.433594 C 249.429688 191.59375 249.296875 192.75 249.128906 193.90625 C 248.964844 195.058594 248.769531 196.207031 248.539062 197.347656 C 248.308594 198.488281 248.050781 199.625 247.757812 200.753906 C 247.46875 201.878906 247.148438 203 246.792969 204.109375 C 246.441406 205.21875 246.058594 206.320312 245.644531 207.410156 C 245.234375 208.496094 244.789062 209.574219 244.316406 210.640625 C 243.84375 211.703125 243.34375 212.753906 242.8125 213.792969 C 242.285156 214.828125 241.726562 215.851562 241.140625 216.859375 C 240.554688 217.863281 239.941406 218.855469 239.300781 219.828125 C 238.660156 220.800781 237.992188 221.753906 237.300781 222.691406 C 236.605469 223.628906 235.886719 224.542969 235.144531 225.441406 C 234.402344 226.335938 233.632812 227.210938 232.84375 228.066406 C 232.050781 228.921875 231.234375 229.753906 230.398438 230.5625 C 229.5625 231.375 228.703125 232.160156 227.820312 232.921875 C 226.941406 233.683594 226.039062 234.421875 225.121094 235.136719 C 224.199219 235.847656 223.257812 236.535156 222.300781 237.195312 C 221.339844 237.859375 220.363281 238.492188 219.371094 239.101562 C 218.378906 239.707031 217.367188 240.289062 216.34375 240.839844 C 215.316406 241.390625 214.277344 241.917969 213.222656 242.410156 C 212.167969 242.90625 211.101562 243.371094 210.019531 243.808594 C 208.941406 244.246094 207.847656 244.652344 206.746094 245.027344 C 205.644531 245.402344 204.53125 245.75 203.410156 246.066406 C 202.289062 246.378906 201.160156 246.664062 200.023438 246.917969 C 198.886719 247.171875 197.742188 247.390625 196.59375 247.582031 C 195.445312 247.773438 194.292969 247.933594 193.132812 248.058594 C 191.976562 248.1875 190.816406 248.28125 189.652344 248.34375 C 188.488281 248.40625 187.324219 248.4375 186.160156 248.4375 Z M 189.507812 221.652344 C 189.507812 222.097656 189.425781 222.523438 189.253906 222.933594 C 189.085938 223.34375 188.84375 223.707031 188.527344 224.019531 C 188.214844 224.332031 187.851562 224.574219 187.441406 224.746094 C 187.03125 224.914062 186.605469 225 186.160156 225 C 185.714844 225 185.289062 224.914062 184.878906 224.746094 C 184.46875 224.574219 184.105469 224.332031 183.792969 224.019531 C 183.480469 223.707031 183.238281 223.34375 183.066406 222.933594 C 182.898438 222.523438 182.8125 222.097656 182.8125 221.652344 C 182.8125 221.207031 182.898438 220.78125 183.066406 220.371094 C 183.238281 219.960938 183.480469 219.597656 183.792969 219.285156 C 184.105469 218.96875 184.46875 218.726562 184.878906 218.558594 C 185.289062 218.386719 185.714844 218.304688 186.160156 218.304688 C 186.605469 218.304688 187.03125 218.386719 187.441406 218.558594 C 187.851562 218.726562 188.214844 218.96875 188.527344 219.285156 C 188.84375 219.597656 189.085938 219.960938 189.253906 220.371094 C 189.425781 220.78125 189.507812 221.207031 189.507812 221.652344 Z M 209.226562 167.207031 C 209.441406 168.410156 209.558594 169.621094 209.585938 170.84375 C 209.613281 172.0625 209.542969 173.277344 209.382812 174.488281 C 209.21875 175.699219 208.964844 176.890625 208.617188 178.058594 C 208.269531 179.230469 207.832031 180.367188 207.308594 181.472656 C 206.785156 182.574219 206.179688 183.628906 205.488281 184.636719 C 204.800781 185.648438 204.039062 186.597656 203.203125 187.488281 C 202.367188 188.378906 201.46875 189.199219 200.507812 189.949219 C 199.542969 190.699219 198.527344 191.371094 197.460938 191.964844 C 196.300781 192.539062 195.238281 193.261719 194.273438 194.121094 C 193.3125 194.984375 192.476562 195.960938 191.777344 197.050781 C 191.078125 198.136719 190.535156 199.300781 190.152344 200.535156 C 189.765625 201.769531 189.550781 203.035156 189.507812 204.328125 C 189.515625 204.789062 189.433594 205.234375 189.269531 205.660156 C 189.105469 206.089844 188.867188 206.472656 188.554688 206.8125 C 188.246094 207.152344 187.882812 207.417969 187.46875 207.617188 C 187.054688 207.820312 186.617188 207.933594 186.160156 207.96875 C 185.734375 208 185.316406 207.949219 184.910156 207.808594 C 184.503906 207.667969 184.140625 207.453125 183.824219 207.164062 C 183.507812 206.875 183.261719 206.535156 183.085938 206.140625 C 182.910156 205.75 182.820312 205.339844 182.8125 204.910156 L 182.8125 204.328125 C 182.832031 203.386719 182.914062 202.449219 183.058594 201.519531 C 183.203125 200.585938 183.410156 199.667969 183.679688 198.765625 C 183.949219 197.863281 184.277344 196.980469 184.667969 196.121094 C 185.054688 195.261719 185.5 194.433594 186 193.632812 C 186.5 192.835938 187.050781 192.074219 187.65625 191.351562 C 188.257812 190.625 188.90625 189.945312 189.601562 189.308594 C 190.296875 188.671875 191.035156 188.085938 191.808594 187.546875 C 192.582031 187.011719 193.390625 186.527344 194.230469 186.101562 C 195.089844 185.628906 195.902344 185.082031 196.667969 184.46875 C 197.429688 183.851562 198.136719 183.171875 198.78125 182.433594 C 199.425781 181.695312 200 180.902344 200.507812 180.0625 C 201.011719 179.222656 201.441406 178.34375 201.792969 177.425781 C 202.144531 176.511719 202.414062 175.570312 202.601562 174.609375 C 202.785156 173.644531 202.886719 172.671875 202.902344 171.691406 C 202.917969 170.710938 202.847656 169.734375 202.691406 168.765625 C 202.535156 167.796875 202.296875 166.847656 201.972656 165.921875 C 201.652344 164.996094 201.25 164.105469 200.769531 163.246094 C 200.289062 162.390625 199.738281 161.582031 199.117188 160.824219 C 198.496094 160.066406 197.8125 159.367188 197.066406 158.726562 C 196.324219 158.085938 195.527344 157.515625 194.683594 157.019531 C 193.839844 156.519531 192.957031 156.097656 192.039062 155.75 C 191.121094 155.40625 190.179688 155.144531 189.210938 154.96875 C 188.246094 154.789062 187.273438 154.695312 186.292969 154.6875 C 185.3125 154.679688 184.335938 154.757812 183.371094 154.921875 C 182.402344 155.085938 181.457031 155.332031 180.53125 155.660156 C 179.609375 155.992188 178.71875 156.398438 177.867188 156.886719 C 177.015625 157.371094 176.210938 157.929688 175.457031 158.558594 C 174.703125 159.183594 174.007812 159.871094 173.375 160.621094 C 172.742188 161.371094 172.179688 162.171875 171.683594 163.019531 C 171.191406 163.867188 170.777344 164.753906 170.441406 165.675781 C 170.101562 166.597656 169.847656 167.539062 169.675781 168.507812 C 169.503906 169.472656 169.417969 170.445312 169.417969 171.429688 C 169.417969 171.871094 169.335938 172.300781 169.164062 172.710938 C 168.996094 173.121094 168.753906 173.480469 168.4375 173.796875 C 168.125 174.109375 167.761719 174.351562 167.351562 174.523438 C 166.941406 174.691406 166.515625 174.777344 166.070312 174.777344 C 165.628906 174.777344 165.199219 174.691406 164.789062 174.523438 C 164.378906 174.351562 164.019531 174.109375 163.703125 173.796875 C 163.390625 173.480469 163.148438 173.121094 162.976562 172.710938 C 162.808594 172.300781 162.722656 171.871094 162.722656 171.429688 C 162.722656 170.703125 162.757812 169.984375 162.824219 169.261719 C 162.890625 168.542969 162.988281 167.824219 163.121094 167.113281 C 163.253906 166.402344 163.421875 165.699219 163.617188 165.003906 C 163.816406 164.308594 164.046875 163.621094 164.308594 162.949219 C 164.570312 162.273438 164.863281 161.613281 165.183594 160.964844 C 165.507812 160.316406 165.859375 159.683594 166.238281 159.070312 C 166.621094 158.453125 167.03125 157.859375 167.464844 157.28125 C 167.902344 156.703125 168.363281 156.148438 168.851562 155.613281 C 169.339844 155.078125 169.851562 154.570312 170.386719 154.082031 C 170.921875 153.59375 171.480469 153.132812 172.058594 152.699219 C 172.636719 152.261719 173.230469 151.855469 173.847656 151.472656 C 174.464844 151.09375 175.09375 150.742188 175.742188 150.421875 C 176.390625 150.101562 177.054688 149.808594 177.730469 149.546875 C 178.402344 149.289062 179.089844 149.058594 179.785156 148.863281 C 180.480469 148.664062 181.1875 148.5 181.898438 148.371094 C 182.609375 148.238281 183.324219 148.140625 184.046875 148.074219 C 184.765625 148.007812 185.488281 147.976562 186.210938 147.976562 C 186.9375 147.980469 187.65625 148.015625 188.378906 148.082031 C 189.097656 148.152344 189.816406 148.253906 190.527344 148.386719 C 191.238281 148.519531 191.941406 148.6875 192.636719 148.886719 C 193.332031 149.089844 194.015625 149.320312 194.691406 149.582031 C 195.363281 149.847656 196.023438 150.140625 196.671875 150.464844 C 197.316406 150.789062 197.949219 151.140625 198.5625 151.523438 C 199.175781 151.90625 199.773438 152.316406 200.347656 152.753906 C 200.925781 153.191406 201.480469 153.65625 202.011719 154.144531 C 202.546875 154.632812 203.054688 155.148438 203.539062 155.683594 C 204.027344 156.21875 204.484375 156.777344 204.921875 157.355469 C 205.355469 157.9375 205.761719 158.535156 206.140625 159.148438 C 206.519531 159.765625 206.867188 160.398438 207.1875 161.046875 C 207.507812 161.699219 207.796875 162.359375 208.054688 163.035156 C 208.316406 163.710938 208.542969 164.398438 208.738281 165.09375 C 208.933594 165.792969 209.09375 166.496094 209.226562 167.207031 Z M 209.226562 167.207031 " fill-opacity="1" fill-rule="nonzero"/></svg>